HIERARCHY
ROOT ROOT
{
	OFFSET 0.000000 56.020000 -5.659234
	CHANNELS 6 Xposition Yposition Zposition Xrotation Yrotation Zrotation 
	JOINT C_spine0001_bind_JNT
	{
		OFFSET 0.000000 1.618999 0.000000
		CHANNELS 3 Xrotation Yrotation Zrotation
		JOINT C_spine0002_bind_JNT
		{
			OFFSET 0.000000 4.942001 0.000001
			CHANNELS 3 Xrotation Yrotation Zrotation
			JOINT C_spine0003_bind_JNT
			{
				OFFSET 0.000000 4.942001 -0.000000
				CHANNELS 3 Xrotation Yrotation Zrotation
				JOINT C_neck0001_bind_JNT
				{
					OFFSET 0.000000 17.026009 -0.000000
					CHANNELS 3 Xrotation Yrotation Zrotation
					JOINT C_neck0002_bind_JNT
					{
						OFFSET 0.000000 3.249985 0.000000
						CHANNELS 3 Xrotation Yrotation Zrotation
						JOINT C_head_bind_JNT
						{
							OFFSET 0.000000 5.278008 0.000000
							CHANNELS 3 Xrotation Yrotation Zrotation
							End Site
							{
								OFFSET 0.000000 0.000000 0.000000
							}
						}
					}
				}
				JOINT L_clavicle_bind_JNT
				{
					OFFSET 4.590000 12.067001 0.834000
					CHANNELS 3 Xrotation Yrotation Zrotation
					JOINT L_armUpper0001_bind_JNT
					{
						OFFSET 7.812635 0.512001 -3.452945
						CHANNELS 3 Xrotation Yrotation Zrotation
						JOINT L_armLower0001_bind_JNT
						{
							OFFSET 15.265892 -6.552116 -0.058157
							CHANNELS 3 Xrotation Yrotation Zrotation
							JOINT L_hand0001_bind_JNT
							{
								OFFSET 14.747667 -6.369995 5.049225
								CHANNELS 3 Xrotation Yrotation Zrotation
								End Site
								{
									OFFSET 0.000000 0.000000 0.000000
								}
							}
						}
					}
				}
				JOINT R_clavicle_bind_JNT
				{
					OFFSET -4.590000 12.067001 0.834000
					CHANNELS 3 Xrotation Yrotation Zrotation
					JOINT R_armUpper0001_bind_JNT
					{
						OFFSET -7.812635 0.512001 -3.452945
						CHANNELS 3 Xrotation Yrotation Zrotation
						JOINT R_armLower0001_bind_JNT
						{
							OFFSET -15.265890 -6.552124 -0.058160
							CHANNELS 3 Xrotation Yrotation Zrotation
							JOINT R_hand0001_bind_JNT
							{
								OFFSET -14.746784 -6.369629 5.048937
								CHANNELS 3 Xrotation Yrotation Zrotation
								End Site
								{
									OFFSET 0.000000 0.000000 0.000000
								}
							}
						}
					}
				}
			}
		}
	}
	JOINT C_pelvis0001_bind_JNT
	{
		OFFSET -0.000000 0.000000 0.000000
		CHANNELS 3 Xrotation Yrotation Zrotation
		JOINT L_legUpper0001_bind_JNT
		{
			OFFSET 6.599999 -6.027000 0.539000
			CHANNELS 3 Xrotation Yrotation Zrotation
			JOINT L_legLower0001_bind_JNT
			{
				OFFSET -0.140713 -19.187443 0.040261
				CHANNELS 3 Xrotation Yrotation Zrotation
				JOINT L_foot0001_bind_JNT
				{
					OFFSET -0.132215 -18.028637 -1.138370
					CHANNELS 3 Xrotation Yrotation Zrotation
					JOINT L_foot0002_bind_JNT
					{
						OFFSET 0.007014 -4.693133 9.886524
						CHANNELS 3 Xrotation Yrotation Zrotation
						End Site
						{
							OFFSET 0.000000 0.000000 0.000000
						}
					}
				}
			}
		}
		JOINT R_legUpper0001_bind_JNT
		{
			OFFSET -6.599999 -6.027000 0.539000
			CHANNELS 3 Xrotation Yrotation Zrotation
			JOINT R_legLower0001_bind_JNT
			{
				OFFSET 0.140710 -19.187164 0.040550
				CHANNELS 3 Xrotation Yrotation Zrotation
				JOINT R_foot0001_bind_JNT
				{
					OFFSET 0.132215 -18.028633 -1.138362
					CHANNELS 3 Xrotation Yrotation Zrotation
					JOINT R_foot0002_bind_JNT
					{
						OFFSET -0.007014 -4.693128 9.886505
						CHANNELS 3 Xrotation Yrotation Zrotation
						End Site
						{
							OFFSET 0.000000 0.000000 0.000000
						}
					}
				}
			}
		}
	}
}
MOTION
Frames: 16
Frame Time: 0.033333
0.000000 48.689621 0.000000 0.052495 -4.965000 -0.023055 0.636323 5.840798 -1.470574 -2.789209 0.960499 -1.838944 5.468868 0.649992 -2.336306 14.718131 -3.329690 1.781621 0.108472 0.221542 0.165306 -9.841917 -6.330296 2.556201 9.908048 4.273869 9.485540 -19.723650 0.349134 -71.901443 4.843671 17.463663 3.714325 -8.744309 -10.117571 -33.147747 9.060172 -5.489135 -12.424241 -17.269972 2.188951 75.115326 -5.562427 -11.567115 17.305296 -3.214022 2.835152 17.745686 1.655636 4.068725 1.042118 -1.122099 -8.363402 -5.811395 4.266091 -1.104761 -1.896690 -4.474168 13.836755 5.260776 -3.223940 1.542784 0.863373 -17.798920 -3.432358 -5.865451 30.654366 0.712080 0.422004 -4.100308 13.618258 2.262498 0.229994 2.445146 -1.358776 
0.468564 48.802368 -0.108441 0.039929 -3.973114 -0.039835 0.548941 4.017268 -1.142856 -2.897714 0.865508 -1.695853 5.848851 0.794653 -2.500527 14.845110 -2.961459 1.977967 0.032714 -0.164611 0.265380 -9.508318 -5.906517 2.562162 10.275240 5.166382 9.008437 -20.439901 0.227002 -71.349770 5.412450 16.704876 4.036622 -9.060713 -8.914367 -34.246254 9.492859 -5.585601 -13.159728 -17.822573 2.292892 75.399139 -5.714459 -11.564025 17.137020 -4.021221 0.770813 17.499313 1.309467 2.464452 1.347965 -1.615547 -8.709654 -6.851431 4.265553 -0.132693 -1.660503 -3.373312 14.809227 5.372221 -3.090565 1.483567 1.131312 -18.978975 -3.203909 -6.138005 33.615681 -0.992828 0.638731 -3.382945 15.056487 2.421841 1.062872 2.080289 -1.415411 
0.820771 48.848362 0.000328 0.017555 -4.151045 -0.025231 0.600599 3.719927 -1.270848 -2.662386 0.837813 -1.737078 5.739451 0.447813 -2.612110 14.794438 -2.946563 1.895689 -0.166638 0.058038 0.377864 -9.952913 -5.492515 2.652026 9.341431 4.808714 8.603902 -19.229570 1.169458 -70.270714 5.363982 17.081709 4.481358 -8.932530 -9.169765 -34.369411 9.399648 -5.519039 -12.854326 -18.162914 1.815414 75.551102 -6.380156 -11.880587 16.913918 -2.852757 0.087324 17.165705 1.413706 2.814621 1.417472 -1.482118 -9.274700 -7.394823 3.782886 0.798733 -1.878152 -3.186643 13.725446 6.111036 -3.030724 1.747058 0.977004 -21.835983 -2.567483 -6.980897 37.750610 -1.123482 0.956681 -2.816821 15.193267 2.140272 0.868922 2.128668 -1.531600 
1.048818 48.739632 0.172964 0.043065 -4.235486 -0.034282 0.430521 3.622095 -0.919797 -2.626963 0.556330 -1.906945 5.812853 0.294509 -2.885168 14.382395 -2.571779 1.889621 0.080604 0.305763 0.247684 -10.427056 -5.503312 2.763250 9.708330 4.951608 8.779015 -19.935865 0.813288 -70.206253 6.010935 17.720303 4.181030 -8.585257 -9.247669 -34.584431 9.224067 -5.220095 -13.364463 -17.625986 1.326429 76.048607 -5.869837 -12.202203 16.833115 -3.346678 -0.470254 16.626099 0.982241 2.846328 1.641026 -0.643803 -9.297757 -7.856637 3.552090 0.854115 -1.659818 -3.502126 13.819068 5.950228 -3.076180 1.576247 1.126349 -23.435547 -2.345744 -7.622452 40.867157 -1.518288 1.015633 -2.030628 15.235549 2.538262 1.426423 2.109588 -1.760484 
1.192593 48.844456 0.220166 0.029249 -4.965991 -0.020105 0.243109 4.201179 -1.052405 -2.460166 0.528785 -1.963456 5.805100 0.285016 -3.075382 13.999020 -2.477293 1.863623 0.202783 0.144666 0.289726 -10.775934 -4.626147 2.886621 9.424783 4.904087 9.124555 -19.790909 0.756021 -69.832520 6.530172 17.293436 4.110566 -8.713614 -8.885921 -34.469898 9.293645 -5.174349 -13.692941 -17.567875 0.765516 76.376862 -5.273252 -12.472706 17.217291 -3.449051 -0.987490 16.254496 0.807861 3.568879 1.664017 -0.489541 -8.609706 -8.184457 3.620862 0.756321 -1.490317 -3.445740 13.522564 6.066438 -3.042598 1.877676 0.984127 -25.298683 -1.479646 -8.064043 45.001614 -1.824818 1.556011 -0.943216 14.562077 2.799686 1.472070 2.048215 -2.317492 
1.336214 48.670605 0.310478 0.021514 -5.305710 -0.032014 0.309821 4.383224 -0.788604 -2.653255 0.565141 -2.074350 6.008337 0.263483 -3.205769 13.648829 -2.276217 1.796089 0.286803 0.119182 0.274798 -11.105280 -4.104883 2.878635 9.472654 4.912900 9.578570 -19.873247 0.666118 -69.749092 6.910370 16.435129 3.619755 -8.760359 -8.661228 -34.212189 9.318016 -5.105605 -13.641708 -17.157650 0.500149 76.487831 -4.709094 -12.369613 17.149191 -3.770294 -1.539392 15.824428 0.689722 3.959085 1.835470 0.213181 -8.508076 -8.296750 3.449035 0.461288 -1.743334 -3.704252 13.439002 6.477728 -3.155932 1.596132 0.931315 -27.174549 -1.349457 -7.934857 47.911785 -2.195735 1.212280 0.466364 14.709970 3.076175 2.581429 1.966997 -3.494174 
1.620848 48.696991 0.286511 0.020109 -5.863709 -0.025318 0.457737 5.050947 -0.723295 -2.722780 0.397787 -2.175252 6.294421 0.364951 -3.205297 13.626623 -2.015890 1.642825 0.159794 0.222538 0.378236 -11.589330 -3.978401 2.733469 9.420552 4.704264 9.933779 -20.086922 0.843515 -69.780701 7.123638 15.633850 3.328731 -8.796761 -8.361831 -34.191059 9.124003 -5.027905 -13.728127 -16.930243 -0.089422 76.211235 -4.105448 -12.251611 17.051884 -3.890145 -2.074643 16.474039 0.627798 4.559057 1.935182 -0.390061 -7.869522 -9.018788 4.600681 -0.075888 -1.668043 -4.008234 13.248581 6.594669 -3.310057 1.108533 1.233197 -29.825966 -0.666872 -7.831419 52.435558 -2.972529 1.168858 2.163017 15.519304 4.159078 2.751053 1.460273 -5.224914 
1.804716 48.587914 0.335734 0.036073 -6.418460 -0.035086 0.548245 5.605334 -0.679969 -2.529526 0.308081 -2.345820 6.061524 0.331053 -3.059906 13.718180 -2.026853 1.645854 0.121641 0.266896 0.210030 -11.682923 -4.008989 2.672265 9.747036 4.740138 10.032871 -20.264881 0.808794 -69.889587 6.755616 15.222165 3.413270 -8.190681 -8.391760 -33.759815 8.741327 -4.937390 -13.559961 -16.702961 -0.085824 75.917770 -3.723791 -12.690211 16.670801 -3.820812 -2.088002 16.582996 0.273013 5.379340 1.929069 -0.219996 -7.960554 -8.884626 5.244839 -0.408730 -1.997593 -4.328227 13.026867 7.011671 -3.308100 1.122505 1.277994 -31.692165 -0.904733 -7.320905 55.956985 -3.750413 0.514254 4.095108 16.088980 4.887984 2.959088 0.989670 -6.516201 
2.119570 48.539692 0.400184 0.021207 -7.240724 -0.040669 0.519648 6.504003 -0.432902 -2.548095 0.160793 -2.445395 6.498426 0.233004 -2.910149 13.574439 -1.879946 1.255141 0.279676 0.074073 0.350347 -11.692547 -3.758595 2.285886 9.462231 4.299550 9.589010 -20.092346 1.142837 -69.443054 6.590467 14.684534 3.120662 -8.486956 -8.394895 -33.972839 8.196692 -4.908374 -13.579808 -16.515303 -0.260175 75.072189 -3.033767 -12.875256 16.200439 -4.288706 -1.209394 17.164206 -0.498732 6.370806 2.141715 0.367509 -7.827810 -9.296213 5.908360 -1.067236 -2.104257 -4.456754 12.382756 7.097399 -3.546774 1.024993 1.599457 -33.930866 -1.487187 -7.145831 60.000641 -4.805480 -0.155983 6.960524 17.266109 5.357920 3.235260 0.325721 -7.080246 
2.362330 48.492466 0.463854 0.031040 -7.602840 -0.044881 0.579330 6.786257 -0.622729 -2.407694 0.042087 -2.489385 6.656982 0.207966 -2.890784 13.736973 -1.825604 1.274200 0.113865 0.000366 0.216673 -11.332343 -3.641304 2.192078 9.356496 4.317202 9.232366 -19.614269 1.257876 -69.149559 5.582068 14.249986 3.074306 -9.005743 -8.649734 -33.444752 7.561514 -4.959381 -13.111632 -15.915426 -0.280645 74.341629 -2.581855 -12.792880 16.255283 -4.406837 -0.681639 17.059023 -0.748214 6.961508 1.997697 0.514113 -8.069969 -9.393147 6.081015 -1.401360 -2.029424 -4.268796 12.091922 7.319435 -3.433511 0.612856 1.556909 -36.393452 -2.212630 -7.074711 64.068497 -5.204143 -0.829727 8.582180 17.725174 5.421657 3.514600 -0.056974 -6.747515 
2.703737 48.528713 0.399821 0.024955 -7.649709 -0.030990 0.342726 6.801919 -0.974772 -2.032801 -0.180396 -2.228717 6.983914 0.185214 -2.668161 13.869736 -1.673280 0.897525 0.205961 -0.227823 0.221406 -11.116129 -3.045559 1.829576 9.030598 4.261782 8.765100 -19.359171 1.482792 -68.951958 5.099738 13.761167 3.196230 -9.677121 -8.781180 -33.439453 6.890724 -4.946890 -13.081739 -15.729435 -0.434111 73.116783 -2.220711 -13.187933 16.215479 -4.530656 0.008039 17.438334 -1.658007 6.749504 1.502643 1.018148 -7.493163 -9.415376 6.727059 -2.222535 -2.093883 -4.047121 11.740513 7.631220 -3.669026 0.803489 1.613368 -39.439129 -3.311523 -6.704934 69.090378 -5.396158 -2.091452 10.104926 18.427227 5.243311 2.821323 -0.469721 -6.439844 
2.921623 48.631279 0.421401 0.024429 -7.891399 -0.053008 0.704796 6.742030 -1.373873 -2.080778 -0.131452 -2.217732 7.217160 -0.040717 -2.555769 13.964857 -1.420862 0.933331 0.095211 -0.154055 0.196538 -10.583866 -2.879062 1.570107 8.669432 4.390621 8.857893 -19.149914 1.264745 -69.169640 4.489703 14.010771 3.527858 -9.626518 -9.023290 -33.738831 6.278552 -4.832021 -12.551915 -15.400764 -0.754522 71.705399 -2.437390 -13.079828 16.180840 -4.025227 0.218356 17.619156 -1.719183 6.913709 1.013416 0.927728 -7.811318 -9.178482 7.088073 -2.071297 -1.927068 -3.885974 11.131373 7.644289 -3.740315 0.580743 1.578668 -42.274445 -3.514552 -7.030190 73.370583 -5.384192 -2.055166 10.598665 18.743496 4.852142 2.407121 -0.548270 -6.286449 
3.228198 48.803860 0.403732 0.025624 -8.043301 -0.048243 0.695351 6.481651 -1.734818 -1.822324 -0.216885 -1.929221 7.336348 0.069381 -2.398505 14.424905 -1.497235 0.726590 0.111231 -0.088615 0.137494 -10.272716 -2.754690 1.196171 8.493129 4.435171 8.489408 -18.972759 0.893230 -69.219788 4.370086 13.854511 3.391339 -9.835258 -9.631514 -33.819080 5.753462 -4.716099 -12.585878 -14.422328 -1.249179 70.369026 -2.665066 -12.947401 16.163694 -4.015168 0.741871 17.963022 -2.160712 6.629622 0.294608 1.307776 -7.515743 -8.426643 7.197784 -2.154409 -1.847265 -3.318625 10.644290 7.272506 -4.023137 0.866822 1.713648 -45.841213 -3.649635 -6.793274 78.488159 -5.516086 -2.344957 10.259559 18.033768 4.596679 2.026763 -0.631921 -6.261701 
3.409995 48.974464 0.406852 0.031718 -8.631682 -0.048454 0.843360 6.708833 -2.256189 -1.634452 -0.381386 -1.835279 7.320680 -0.031613 -2.194574 14.583664 -1.303167 0.610004 -0.053521 -0.081557 0.181177 -10.046967 -2.325403 0.989033 8.236094 4.500802 8.233954 -19.026327 0.635871 -69.304604 4.122185 13.910346 3.786436 -9.713179 -9.846009 -33.728374 5.420444 -4.731917 -12.479367 -14.079012 -1.475857 69.378288 -2.924746 -12.611721 16.382851 -3.975857 0.407863 17.810621 -2.299871 6.947971 -0.444523 1.643602 -7.310174 -7.713347 6.928831 -2.270494 -1.606029 -2.698713 10.227521 7.002098 -4.387910 0.655247 1.572214 -48.381977 -3.351859 -7.116368 81.466187 -5.173309 -1.658056 9.890643 17.481558 4.530875 3.699176 -0.561335 -5.542833 
3.511274 49.085690 0.467536 0.027090 -8.589061 -0.052450 0.926310 6.181597 -2.678876 -1.490920 -0.334041 -1.743661 7.508112 -0.077819 -2.146288 14.965990 -1.206418 0.518217 -0.084771 -0.135202 0.203314 -9.857956 -2.037629 0.969726 8.092310 4.301814 7.863838 -19.138411 0.307649 -69.110825 4.094478 14.048659 4.020099 -9.824332 -10.062264 -33.662380 5.248317 -4.711765 -12.197824 -13.408485 -2.036604 68.368385 -3.166209 -12.715406 16.648920 -3.928851 0.878771 17.842625 -2.470182 6.766413 -1.308538 2.096860 -6.738834 -6.649067 6.887098 -2.984347 -1.609928 -2.484707 10.123951 6.721045 -4.560422 1.039201 1.570600 -51.281937 -3.050297 -7.374273 84.415939 -4.470630 -1.170928 9.292131 16.874771 4.337988 4.608235 -0.547163 -5.620432 
3.612839 49.242569 0.559157 0.030144 -8.693171 -0.046757 1.381682 5.689620 -3.119440 -1.579244 -0.469146 -1.645425 7.635168 -0.298180 -2.191385 14.685481 -0.789984 0.554418 0.041025 -0.101338 0.116756 -9.565556 -1.885745 0.978676 7.749617 4.507443 7.632769 -19.039877 0.416551 -68.678284 4.110911 13.911669 4.056656 -9.724024 -10.154327 -33.603748 5.186353 -4.583886 -11.921176 -12.971632 -2.479023 67.492722 -3.311233 -12.225788 16.855961 -3.971819 0.782037 17.987377 -2.113934 6.372886 -2.019420 1.923772 -6.470281 -6.000865 6.526247 -2.683768 -1.456918 -2.194973 9.780293 6.471940 -4.624757 1.070255 1.378610 -53.522526 -3.229340 -7.328257 85.769302 -4.080487 -1.005694 8.215925 16.917723 4.241958 5.671293 -0.193977 -5.235135 
